<svg width="699" height="311" viewBox="0 0 699 311" fill="none" xmlns="http://www.w3.org/2000/svg">
<path d="M85.8 231L55 176.6H41.8V231H13.8V91.4H66.2C77 91.4 86.2 93.3333 93.8 97.2C101.4 100.933 107.067 106.067 110.8 112.6C114.667 119 116.6 126.2 116.6 134.2C116.6 143.4 113.933 151.733 108.6 159.2C103.267 166.533 95.3333 171.6 84.8 174.4L118.2 231H85.8ZM41.8 155.6H65.2C72.8 155.6 78.4667 153.8 82.2 150.2C85.9333 146.467 87.8 141.333 87.8 134.8C87.8 128.4 85.9333 123.467 82.2 120C78.4667 116.4 72.8 114.6 65.2 114.6H41.8V155.6ZM134.725 175.2C134.725 164 136.925 154.067 141.325 145.4C145.858 136.733 151.925 130.067 159.525 125.4C167.258 120.733 175.858 118.4 185.325 118.4C193.592 118.4 200.792 120.067 206.925 123.4C213.192 126.733 218.192 130.933 221.925 136V120.2H250.125V231H221.925V214.8C218.325 220 213.325 224.333 206.925 227.8C200.658 231.133 193.392 232.8 185.125 232.8C175.792 232.8 167.258 230.4 159.525 225.6C151.925 220.8 145.858 214.067 141.325 205.4C136.925 196.6 134.725 186.533 134.725 175.2ZM221.925 175.6C221.925 168.8 220.592 163 217.925 158.2C215.258 153.267 211.658 149.533 207.125 147C202.592 144.333 197.725 143 192.525 143C187.325 143 182.525 144.267 178.125 146.8C173.725 149.333 170.125 153.067 167.325 158C164.658 162.8 163.325 168.533 163.325 175.2C163.325 181.867 164.658 187.733 167.325 192.8C170.125 197.733 173.725 201.533 178.125 204.2C182.658 206.867 187.458 208.2 192.525 208.2C197.725 208.2 202.592 206.933 207.125 204.4C211.658 201.733 215.258 198 217.925 193.2C220.592 188.267 221.925 182.4 221.925 175.6ZM338.872 118.6C352.072 118.6 362.739 122.8 370.872 131.2C379.005 139.467 383.072 151.067 383.072 166V231H355.072V169.8C355.072 161 352.872 154.267 348.472 149.6C344.072 144.8 338.072 142.4 330.472 142.4C322.739 142.4 316.605 144.8 312.072 149.6C307.672 154.267 305.472 161 305.472 169.8V231H277.472V120.2H305.472V134C309.205 129.2 313.939 125.467 319.672 122.8C325.539 120 331.939 118.6 338.872 118.6ZM453.098 118.4C461.365 118.4 468.632 120.067 474.898 123.4C481.165 126.6 486.098 130.8 489.698 136V120.2H517.898V231.8C517.898 242.067 515.832 251.2 511.698 259.2C507.565 267.333 501.365 273.733 493.098 278.4C484.832 283.2 474.832 285.6 463.098 285.6C447.365 285.6 434.432 281.933 424.298 274.6C414.298 267.267 408.632 257.267 407.298 244.6H435.098C436.565 249.667 439.698 253.667 444.498 256.6C449.432 259.667 455.365 261.2 462.298 261.2C470.432 261.2 477.032 258.733 482.098 253.8C487.165 249 489.698 241.667 489.698 231.8V214.6C486.098 219.8 481.098 224.133 474.698 227.6C468.432 231.067 461.232 232.8 453.098 232.8C443.765 232.8 435.232 230.4 427.498 225.6C419.765 220.8 413.632 214.067 409.098 205.4C404.698 196.6 402.498 186.533 402.498 175.2C402.498 164 404.698 154.067 409.098 145.4C413.632 136.733 419.698 130.067 427.298 125.4C435.032 120.733 443.632 118.4 453.098 118.4ZM489.698 175.6C489.698 168.8 488.365 163 485.698 158.2C483.032 153.267 479.432 149.533 474.898 147C470.365 144.333 465.498 143 460.298 143C455.098 143 450.298 144.267 445.898 146.8C441.498 149.333 437.898 153.067 435.098 158C432.432 162.8 431.098 168.533 431.098 175.2C431.098 181.867 432.432 187.733 435.098 192.8C437.898 197.733 441.498 201.533 445.898 204.2C450.432 206.867 455.232 208.2 460.298 208.2C465.498 208.2 470.365 206.933 474.898 204.4C479.432 201.733 483.032 198 485.698 193.2C488.365 188.267 489.698 182.4 489.698 175.6ZM594.445 232.8C583.779 232.8 574.179 230.467 565.645 225.8C557.112 221 550.379 214.267 545.445 205.6C540.645 196.933 538.245 186.933 538.245 175.6C538.245 164.267 540.712 154.267 545.645 145.6C550.712 136.933 557.579 130.267 566.245 125.6C574.912 120.8 584.579 118.4 595.245 118.4C605.912 118.4 615.579 120.8 624.245 125.6C632.912 130.267 639.712 136.933 644.645 145.6C649.712 154.267 652.245 164.267 652.245 175.6C652.245 186.933 649.645 196.933 644.445 205.6C639.379 214.267 632.445 221 623.645 225.8C614.979 230.467 605.245 232.8 594.445 232.8ZM594.445 208.4C599.512 208.4 604.245 207.2 608.645 204.8C613.179 202.267 616.779 198.533 619.445 193.6C622.112 188.667 623.445 182.667 623.445 175.6C623.445 165.067 620.645 157 615.045 151.4C609.579 145.667 602.845 142.8 594.845 142.8C586.845 142.8 580.112 145.667 574.645 151.4C569.312 157 566.645 165.067 566.645 175.6C566.645 186.133 569.245 194.267 574.445 200C579.779 205.6 586.445 208.4 594.445 208.4Z" fill="black"/>
<path d="M672.165 238.505C666.718 238.505 662.203 236.857 658.62 233.56C655.18 230.12 653.46 225.892 653.46 220.875C653.46 215.858 655.18 211.702 658.62 208.405C662.203 204.965 666.718 203.245 672.165 203.245C677.468 203.245 681.84 204.965 685.28 208.405C688.72 211.702 690.44 215.858 690.44 220.875C690.44 225.892 688.72 230.12 685.28 233.56C681.84 236.857 677.468 238.505 672.165 238.505Z" fill="#FFB013" fill-opacity="0.74"/>
</svg>
