<svg height="57" viewBox="0 0 64 57" width="64" xmlns="http://www.w3.org/2000/svg"><g fill="#61dafb"><path d="m63.6724652 28.3175934c0-4.211999-5.2747187-8.2036781-13.3617569-10.6790375 1.8662396-8.24255808 1.0367998-14.80031656-2.6179194-16.89983607-.8423998-.49247989-1.8273595-.72575983-2.9030393-.72575983v2.89007933c.5961599 0 1.0756798.11663997 1.4774397.33695992 1.7625596 1.01087976 2.5271994 4.85999887 1.9310395 9.81071775-.1425599 1.2182397-.3758399 2.5012794-.6609598 3.8102391-2.5401594-.6220799-5.3135988-1.1015998-8.2295981-1.4126397-1.7495996-2.3975994-3.5639992-4.5748789-5.3913588-6.47999848 4.2249591-3.92687909 8.1907181-6.07823859 10.8863975-6.07823859v-2.89007933c-3.5639992 0-8.2295981 2.54015941-12.947037 6.94655839-4.7174389-4.38047898-9.3830378-6.8947184-12.947037-6.8947184v2.89007933c2.6827194 0 6.6614385 2.1383995 10.8863975 6.0393586-1.8143996 1.90511958-3.6287992 4.06943908-5.3524788 6.46703848-2.9289593.3110399-5.7023986.7905598-8.2425581 1.4255997-.2980799-1.2959997-.5183998-2.5531194-.6739198-3.7583991-.6091199-4.95071889.14256-8.799838 1.8921596-9.82367776.3887999-.23327995.8942398-.33695992 1.4903996-.33695992v-2.89007933c-1.0886397 0-2.0735995.23327994-2.9289593.72575983-3.6417592 2.09951951-4.458239 8.64431799-2.5790394 16.86095608-8.06111814 2.4883194-13.30991692 6.4670385-13.30991692 10.6660775 0 4.2119991 5.27471878 8.2036781 13.36175692 10.6790376-1.8662396 8.2425581-1.0367998 14.8003165 2.6179194 16.899836.8423998.4924799 1.8273596.7257599 2.9159993.7257599 3.5639992 0 8.2295981-2.5401594 12.947037-6.9465584 4.7174389 4.380479 9.3830378 6.8947184 12.947037 6.8947184 1.0886397 0 2.0735995-.23328 2.9289593-.7257598 3.6417592-2.0995196 4.458239-8.644318 2.5790394-16.8609561 8.0351982-2.4753595 13.2839969-6.4670385 13.2839969-10.6660776zm-16.873916-8.644318c-.4795199 1.6718397-1.0756798 3.3955193-1.7495996 5.1191989-.5313599-1.0367998-1.0886398-2.0735996-1.6977596-3.1103993-.5961599-1.0367998-1.2311998-2.0476796-1.8662396-3.0326393 1.8403196.2721599 3.6158391.6091198 5.3135988 1.0238397zm-5.9356787 13.8023968c-1.0108797 1.7495996-2.0476795 3.4084793-3.1233592 4.9507189-1.9310396.16848-3.8879991.2591999-5.8579187.2591999-1.9569595 0-3.9139191-.0907199-5.8319986-.2462399-1.0756798-1.5422397-2.1254395-3.1881593-3.1363193-4.9247989-.9849598-1.6977596-1.8791996-3.4214392-2.6956794-5.1580788.8035198-1.7366396 1.7107196-3.4732792 2.6827194-5.1710388 1.0108798-1.7495996 2.0476795-3.4084792 3.1233593-4.9507188 1.9310395-.16848 3.8879991-.2592 5.8579186-.2592 1.9569596 0 3.9139191.09072 5.8319987.24624 1.0756797 1.5422396 2.1254395 3.1881592 3.1363192 4.9247988.9849598 1.6977596 1.8791996 3.4214392 2.6956794 5.1580788-.8164798 1.7366396-1.7107196 3.4732792-2.6827194 5.1710388zm4.1860791-1.6847996c.6998398 1.7366396 1.2959997 3.4732792 1.7884795 5.1580788-1.6977596.4147199-3.4862391.7646399-5.3395187 1.0367998.6350398-.9979198 1.2700797-2.0217595 1.8662395-3.0715193.5961599-1.0367998 1.1534398-2.0865595 1.6847997-3.1233593zm-13.141437 13.8283168c-1.2052797-1.2441597-2.4105594-2.6308794-3.6028792-4.147199 1.1663998.05184 2.3587195.09072 3.5639992.09072 1.2182397 0 2.4235195-.02592 3.6028792-.09072-1.1663998 1.5163196-2.3716795 2.9030393-3.5639992 4.147199zm-9.6422378-7.6334382c-1.8403195-.2721599-3.6158391-.6091199-5.3135987-1.0238398.4795199-1.6718396 1.0756797-3.3955192 1.7495996-5.1191988.5313598 1.0367998 1.0886397 2.0735995 1.6977596 3.1103993.6091198 1.0367998 1.2311997 2.0476795 1.8662395 3.0326393zm9.5774378-26.9697538c1.2052797 1.2441598 2.4105595 2.6308794 3.6028792 4.1471991-1.1663997-.05184-2.3587195-.09072-3.5639992-.09072-1.2182397 0-2.4235194.02592-3.6028792.09072 1.1663998-1.5163197 2.3716795-2.9030393 3.5639992-4.1471991zm-9.5903978 7.6334383c-.6350398.9979197-1.2700797 2.0217595-1.8662395 3.0715193-.5961599 1.0367997-1.1534398 2.0735995-1.6847996 3.1103992-.6998399-1.7366396-1.2959997-3.4732792-1.7884796-5.1580788 1.6977596-.4017599 3.4862392-.7516798 5.3395187-1.0238397zm-11.7287972 16.2259162c-4.58783898-1.9569595-7.55567829-4.5230389-7.55567829-6.5577585 0-2.0347195 2.96783931-4.6137589 7.55567829-6.5577584 1.1145597-.4795199 2.3327994-.9071998 3.5899191-1.3089597.7387199 2.5401594 1.7107196 5.1839988 2.9159994 7.8926381-1.1923198 2.6956794-2.1513595 5.3265588-2.8771194 7.8537582-1.2830397-.4017599-2.5012794-.8423998-3.6287991-1.3219197zm6.9724783 18.5198357c-1.7625595-1.0108797-2.5271994-4.8599989-1.9310395-9.8107177.14256-1.2182397.3758399-2.5012794.6609598-3.8102391 2.5401595.6220798 5.3135988 1.1015997 8.2295981 1.4126397 1.7495996 2.3975994 3.5639992 4.5748789 5.3913588 6.4799985-4.224959 3.926879-8.1907181 6.0782385-10.8863975 6.0782385-.5831999-.01296-1.0756797-.1295999-1.4644797-.3499199zm30.7411129-9.8755177c.6091199 4.9507189-.1425599 8.799838-1.8921595 9.8236777-.3888.23328-.8942398.33696-1.4903997.33696-2.6827194 0-6.6614385-2.1383995-10.8863975-6.0393586 1.8143996-1.9051196 3.6287992-4.0694391 5.3524788-6.4670385 2.9289593-.31104 5.7023987-.7905599 8.2425581-1.4255997.2980799 1.3089597.5313599 2.5660794.6739198 3.7713591zm4.9895989-8.644318c-1.1145598.4795199-2.3327995.9071998-3.5899192 1.3089597-.7387198-2.5401594-1.7107196-5.1839988-2.9159993-7.8926382 1.1923197-2.6956793 2.1513595-5.3265587 2.8771193-7.8537581 1.2830397.4017599 2.5012794.8423998 3.6417592 1.3219197 4.5878389 1.9569595 7.5556782 4.5230389 7.5556782 6.5577584-.01296 2.0347196-2.9807993 4.613759-7.5686382 6.5577585z"/><circle cx="31.868633" cy="28.317593" r="5.922719"/></g></svg>