<svg height="44" viewBox="0 0 104 44" width="104" xmlns="http://www.w3.org/2000/svg"><g fill="#32325d" fill-rule="evenodd"><path d="m103.679985 22.2911968c0-7.372799-3.5712-13.19039813-10.3967986-13.19039813-6.854399 0-11.0015984 5.81759913-11.0015984 13.13279813 0 8.6687987 4.8959993 13.0463981 11.9231983 13.0463981 3.4271995 0 6.0191987-.7775999 7.9775987-1.8719998v-5.7599991c-1.9584.9791998-4.2047993 1.5839997-7.0559989 1.5839997-2.7935996 0-5.2703992-.9791998-5.5871991-4.3775993h14.083198c0-.3744.0576-1.8719997.0576-2.5631996zm-14.227198-2.7359996c0-3.2543996 1.9871997-4.6079994 3.8015994-4.6079994 1.7567998 0 3.6287995 1.3535998 3.6287995 4.6079994z"/><path d="m71.1647896 9.10079867c-2.8223996 0-4.6367993 1.32479983-5.6447991 2.24639963l-.3744-1.78559969h-6.3359991v33.58079509l7.199999-1.5263998.0288-8.1503988c1.0367998.7487999 2.5631996 1.8143998 5.0975992 1.8143998 5.1551993 0 9.8495986-4.1471994 9.8495986-13.2767981-.0288-8.3519988-4.7807993-12.90239813-9.8207986-12.90239813zm-1.7279997 19.84319713c-1.6991998 0-2.7071996-.6047999-3.3983995-1.3535998l-.0288-10.6847985c.7487999-.8351998 1.7855997-1.4111998 3.4271995-1.4111998 2.6207996 0 4.4351993 2.9375996 4.4351993 6.7103991 0 3.8591994-1.7855997 6.739199-4.4351993 6.739199z"/><path d="m48.9023929 7.40159892 7.2287989-1.55519977v-5.84639915l-7.2287989 1.52639978z"/><path d="m48.902393 9.590399h7.228799v25.199996h-7.228799z"/><path d="m41.155194 11.7215983-.4607999-2.1311997h-6.2207991v25.1999963h7.1999989v-17.0783975c1.6991998-2.2175997 4.5791994-1.8143997 5.4719992-1.4975998v-6.623999c-.9215998-.34559995-4.2911993-.97919985-5.9903991 2.1311997z"/><path d="m26.7551961 3.34079951-7.027199 1.49759979-.0288 23.0687966c0 4.2623994 3.1967996 7.401599 7.4591989 7.401599 2.3615997 0 4.0895994-.432 5.0399993-.9503999v-5.8463992c-.9215999.3744-5.4719992 1.6991998-5.4719992-2.5631996v-10.2239985h5.4719992v-6.1343991h-5.4719992z"/><path d="m7.28639894 16.9055975c0-1.1231998.92159986-1.5551997 2.44799964-1.5551997 2.18879972 0 4.95359932.6623999 7.14239892 1.8431997v-6.767999c-2.3903996-.95039988-4.7519993-1.32479983-7.14239892-1.32479983-5.84639915 0-9.73439858 3.05279953-9.73439858 8.15039883 0 7.9487988 10.9439984 6.681599 10.9439984 10.1087985 0 1.3247998-1.15199983 1.7567998-2.76479959 1.7567998-2.39039965 0-5.44319921-.9791999-7.86239886-2.3039997v6.854399c2.67839961 1.1519998 5.38559922 1.6415998 7.86239886 1.6415998 5.99039909 0 10.10879849-2.9663996 10.10879849-8.1215989-.0288-8.5823987-11.00159836-7.0559989-11.00159836-10.2815985z"/></g></svg>